HIERARCHY
ROOT Hips
{
	OFFSET	0.00	0.00	0.00
	CHANNELS 6 Xposition Yposition Zposition Zrotation Xrotation Yrotation
	JOINT Spine
	{
		OFFSET	 0.00	0.01	 0.00
		CHANNELS 3 Zrotation Xrotation Yrotation
		JOINT Spine1
		{
			OFFSET	 0.00	 2.45913012437421	 0.00
			CHANNELS 3 Zrotation Xrotation Yrotation
            JOINT Neck
            {
                OFFSET	 0.00	 2.48462964506057	 0.00
                CHANNELS 3 Zrotation Xrotation Yrotation
                JOINT Head
                {
                    OFFSET	 0.00	 0.927524780924562	 0.00
                    CHANNELS 3 Zrotation Xrotation Yrotation
                    End Site 
                    {
                        OFFSET	 0.00	 1.14999962169752	 0.00
                    }
                }
            }
			JOINT LeftShoulder
			{
				OFFSET	 0.00	 2.48462964506057	 0.00
				CHANNELS 3 Zrotation Xrotation Yrotation
				JOINT LeftUpArm
				{
					OFFSET	 0.00	 1.24881979654096	 0.00
					CHANNELS 3 Zrotation Xrotation Yrotation
					JOINT LeftForeArm
					{
						OFFSET	 0.00	2.59758046908119	 0.00
						CHANNELS 3 Zrotation Xrotation Yrotation
						JOINT LeftHand
						{
							OFFSET	 0.00	2.45542024364365	 0.00
							CHANNELS 3 Zrotation Xrotation Yrotation
							JOINT LeftHandThumb 
							{
								OFFSET	 0.00	0.00	 0.00
								CHANNELS 3 Zrotation Xrotation Yrotation
								End Site
								{
									OFFSET	 0.00	0.00	1.00000003353624
								}
							}
							JOINT L_Wrist_End 
							{
								OFFSET	 0.00	0.99999967115358	 0.00
								CHANNELS 3 Zrotation Xrotation Yrotation
								End Site 
								{
									OFFSET	 0.00	 0.00	 0.00
								}
							}
						}
					}
				}
			}
			JOINT RightShoulder
			{
				OFFSET	 0.00	 2.48462964506057	 0.00
				CHANNELS 3 Zrotation Xrotation Yrotation
				JOINT RightUpArm
				{
					OFFSET	 0.00	 1.24881979654096	 0.00
					CHANNELS 3 Zrotation Xrotation Yrotation
					JOINT RightForeArm
					{
						OFFSET	 0.00	2.59758046908119	 0.00
						CHANNELS 3 Zrotation Xrotation Yrotation
						JOINT RightHand
						{
							OFFSET	 0.00	2.45542024364365	 0.00
							CHANNELS 3 Zrotation Xrotation Yrotation
							JOINT RightHandThumb 
							{
								OFFSET	 0.00	0.00	 0.00
								CHANNELS 3 Zrotation Xrotation Yrotation
								End Site
								{
									OFFSET	 0.00	0.00	1.00000003353624
								}
							}
							JOINT R_Wrist_End 
							{
								OFFSET	 0.00	0.99999967115358	 0.00
								CHANNELS 3 Zrotation Xrotation Yrotation
								End Site 
								{
									OFFSET	 0.00	 0.00	 0.00
								}
							}
						}
					}
				}
			}
		}
	}
	JOINT LeftUpLeg
	{
		OFFSET	 1.2719394002717	 0.00	 0.00
		CHANNELS 3 Zrotation Xrotation Yrotation
		JOINT LeftLowLeg
		{
			OFFSET	 0.00	-4.3429100912261	 0.00
			CHANNELS 3 Zrotation Xrotation Yrotation
			JOINT LeftFoot
			{
				OFFSET	 0.00	-4.48767017425826	 0.00
				CHANNELS 3 Zrotation Xrotation Yrotation
				JOINT LeftToeBase
                {
                    OFFSET	 0.00	0.00	 1.51507020887566
                    CHANNELS 3 Zrotation Xrotation Yrotation
                    End Site 
                    {
                        OFFSET	 0.00	0.00	 0.75000010571191
                    }
                }
			}
		}
	}
	JOINT RightUpLeg
	{
		OFFSET	 -1.2719393604653	 0.00	 0.00
		CHANNELS 3 Zrotation Xrotation Yrotation
		JOINT RightLowLeg
		{
			OFFSET	 0.00	-4.3429100912261	 0.00
			CHANNELS 3 Zrotation Xrotation Yrotation
			JOINT RightFoot
			{
				OFFSET	 0.00	-4.48767017425826	 0.00
				CHANNELS 3 Zrotation Xrotation Yrotation
				JOINT RightToeBase
                {
                    OFFSET	 0.00	0.00	 1.51507020887566
                    CHANNELS 3 Zrotation Xrotation Yrotation
                    End Site 
                    {
                        OFFSET	 0.00	0.00	 0.749999965609858
                    }
                }   
			}
		}
	}
}
MOTION 
Frames:	13 
Frame Time: 0.02 
 -2.027310028076172 -5.508690185546875 9.335230102539063 140.589 83.9422 -1582.26 2.39009 -17.7142 -0.541812 -7.58365 18.0795 3.70342 18.2159 49.8997 352.421 -73.6963 -81.9253 655.979 -115.8988 -1.19048 369.334 -42.4183 9.00507 35.7988 0.0 21.9986 0.0 11.652 -16.5354 -9.3681 0.0 0.0 0.0 0.0 0.0 0.0 121.958405 -4.16861 -362.972 45.8962 2.97361 -374.728 0.0 23.3561 0.0 2.71171 -9.35679 18.7649 0.0 0.0 0.0 0.0 0.0 0.0 -5.21066 -7.13858 -732.085 0.0 15.3867 0.0 -2.74919 0.8051996 14.5709 0.0 -35.142998 0.0 2.92378 -8.78831 19.021 0.0 22.3407 0.0 30.1664 -16.5371 -5.44117 0.0 -17.67669 0.0 
  -2.0244099426269533 -5.514459838867188 9.33197998046875 139.177 84.075 -1580.75 2.33206 -17.7819 -0.570952 -7.51117 17.966 3.72257 18.3429 50.2173 352.024 -73.854 -81.6136 656.087 -115.7999 -1.19985 369.682 -42.6823 9.08217 34.6983 0.0 21.8401 0.0 11.5626 -16.267 -8.85712 0.0 0.0 0.0 0.0 0.0 0.0 121.8609 -4.15694 -363.11 45.9402 2.87572 -374.624 0.0 23.3626 0.0 2.77009 -9.57285 18.6978 0.0 0.0 0.0 0.0 0.0 0.0 -5.26445 -6.88172 -731.86 0.0 15.1218 0.0 -1.55059 1.9469995 14.8402 0.0 -35.0397 0.0 2.91485 -8.61505 19.3332 0.0 22.4683 0.0 30.4865 -16.2785 -5.8406 0.0 -17.66292 0.0 
  -2.0196600341796875 -5.525490112304688 9.3285498046875 136.587 84.4253 -1578.23 2.42381 -17.764 -0.492643 -7.49585 18.0939 3.77072 18.2487 50.4393 351.944 -74.7372 -81.3967 655.338 -115.8837 -1.2566 369.523 -42.8117 8.88354 33.8687 0.0 21.751 0.0 11.5406 -16.0363 -8.62005 0.0 0.0 0.0 0.0 0.0 0.0 121.905304 -4.12407 -363.089 45.8061 2.80196 -374.654 0.0 23.284 0.0 2.84716 -9.37775 18.5408 0.0 0.0 0.0 0.0 0.0 0.0 -5.30461 -6.28808 -731.765 0.0 14.8565 0.0 -0.752034 2.4168997 15.414 0.0 -34.8954 0.0 2.85575 -8.13908 19.1345 0.0 22.2875 0.0 30.6496 -15.114 -6.21342 0.0 -17.5646 0.0 
  -2.015299987792969 -5.531259765625 9.323400268554687 134.508 84.6412 -1576.17 2.53881 -17.7814 -0.377659 -7.6106 18.2128 3.79447 18.3311 50.4706 351.726 -75.6435 -81.3046 654.576 -115.9877 -1.32709 369.448 -42.861 8.88046 32.9147 0.0 21.6157 0.0 11.5589 -15.924 -8.48557 0.0 0.0 0.0 0.0 0.0 0.0 122.1169 -4.01107 -363.051 45.5375 2.72996 -374.846 0.0 23.2766 0.0 2.81584 -9.35521 18.3496 0.0 0.0 0.0 0.0 0.0 0.0 -5.40787 -5.98527 -731.908 0.0 14.889 0.0 -0.434187 2.4989996 15.964 0.0 -34.8008 0.0 2.75969 -7.80288 18.536 0.0 22.0132 0.0 29.9714 -14.2211 -6.68118 0.0 -17.53776 0.0 
  -2.013990020751953 -5.54135986328125 9.3185400390625 131.741 84.754 -1573.55 2.55572 -17.9794 -0.240779 -7.77155 18.5381 3.98089 18.1486 50.2923 351.846 -75.2603 -81.2556 654.93 -116.0804 -1.34756 369.276 -42.893 8.85961 32.2727 0.0 21.4953 0.0 11.6381 -15.8554 -8.38077 0.0 0.0 0.0 0.0 0.0 0.0 122.3241 -3.91028 -363.256 45.3189 2.93377 -374.933 0.0 23.2484 0.0 2.6881 -9.3981 18.2238 0.0 0.0 0.0 0.0 0.0 0.0 -5.52784 -5.66663 -731.84 0.0 14.9198 0.0 -0.151761 2.4861002 16.2271 0.0 -34.6161 0.0 2.79193 -7.5902 18.8522 0.0 22.1953 0.0 29.8479 -14.4214 -7.18748 0.0 -17.41957 0.0 
  -2.0139599609375 -5.550189819335937 9.3164599609375 129.613 84.8833 -1571.56 2.65688 -18.1514 -0.053155 -8.01099 18.8107 4.10698 18.2195 50.1477 351.739 -75.028 -81.2703 655.155 -116.1649 -1.40828 369.149 -42.9154 8.93871 31.6383 0.0 21.306 0.0 11.61 -15.9089 -8.49441 0.0 0.0 0.0 0.0 0.0 0.0 122.5847 -3.70087 -363.32 45.1071 3.01394 -375.18 0.0 23.064 0.0 2.63943 -9.16328 17.7975 0.0 0.0 0.0 0.0 0.0 0.0 -5.53893 -5.36051 -731.589 0.0 14.8798 0.0 -0.0486773 2.4666996 16.1823 0.0 -34.5533 0.0 2.83212 -7.37457 18.9277 0.0 22.2887 0.0 29.6477 -14.435301 -7.47091 0.0 -17.23272 0.0 
  -2.0126300048828125 -5.558820190429688 9.318070068359376 128.896 85.0469 -1571.0 2.97967 -18.353 0.311506 -8.36576 19.0553 4.19377 18.7972 50.0859 351.126 -74.8084 -81.3526 655.453 -116.1504 -1.41294 368.97 -43.0194 8.9613 31.0624 0.0 21.1769 0.0 11.4576 -16.2048 -8.43421 0.0 0.0 0.0 0.0 0.0 0.0 122.7061 -3.66527 -363.337 45.18 3.22718 -375.352 0.0 22.785 0.0 2.80746 -9.15721 17.7605 0.0 0.0 0.0 0.0 0.0 0.0 -5.47413 -5.16895 -731.588 0.0 14.9395 0.0 -0.0643545 2.4104996 16.3231 0.0 -34.5372 0.0 2.75274 -7.06249 18.0964 0.0 21.8692 0.0 29.3978 -13.9165 -7.11132 0.0 -17.15865 0.0 
  -2.0113800048828123 -5.57708984375 9.318280029296876 123.993 85.2732 -1565.91 2.89998 -18.3181 0.261894 -8.46233 19.1427 4.19354 18.7082 50.2459 351.271 -74.0439 -81.3177 656.179 -116.014496 -1.46816 368.878 -43.4455 8.92101 30.6078 0.0 20.9567 0.0 11.3571 -16.3522 -8.62538 0.0 0.0 0.0 0.0 0.0 0.0 122.4645 -3.65279 -363.264 45.5466 3.18499 -375.714 0.0 22.556 0.0 2.92611 -9.39257 18.0611 0.0 0.0 0.0 0.0 0.0 0.0 -5.59484 -4.58849 -731.919 0.0 14.9146 0.0 -0.134873 2.4372997 16.4612 0.0 -34.544 0.0 2.88604 -6.52124 19.4272 0.0 22.2283 0.0 29.4604 -14.557501 -8.15337 0.0 -16.91975 0.0 
  -2.0078500366210936 -5.587880249023438 9.320910034179688 120.685 85.5186 -1562.6 3.09396 -18.1452 0.45603 -8.63159 18.9804 4.12119 19.0434 50.5599 350.95 -74.5095 -81.3106 655.822 -115.899 -1.54578 368.799 -43.8086 8.85729 30.1716 0.0 20.7709 0.0 11.2185 -16.5955 -9.22105 0.0 0.0 0.0 0.0 0.0 0.0 122.2283 -3.63435 -363.171 45.9719 3.09217 -375.911 0.0 22.2659 0.0 2.99759 -9.3429 18.4786 0.0 0.0 0.0 0.0 0.0 0.0 -5.58568 -4.1594 -732.091 0.0 14.9147 0.0 -0.135141 2.4487 16.6439 0.0 -34.507 0.0 2.73774 -5.97523 18.7267 0.0 21.8321 0.0 29.6935 -14.149799 -7.56969 0.0 -16.87486 0.0 
  -2.0075 -5.59823974609375 9.323179931640626 118.331 85.7283 -1560.2 3.18002 -18.0232 0.51873 -8.62391 18.7597 4.04593 19.1272 50.9693 350.932 -74.8864 -81.2718 655.477 -115.854904 -1.58422 368.746 -44.1314 8.7253 29.5488 0.0 20.6043 0.0 11.0578 -16.7589 -9.71932 0.0 0.0 0.0 0.0 0.0 0.0 122.044 -3.60489 -363.044 46.2319 2.91705 -376.165 0.0 22.1669 0.0 2.73467 -9.48934 17.5078 0.0 0.0 0.0 0.0 0.0 0.0 -5.51918 -3.83185 -732.2 0.0 14.9165 0.0 -0.172866 2.4132004 16.7213 0.0 -34.4468 0.0 2.64777 -5.50522 18.0044 0.0 21.4165 0.0 29.8969 -13.753201 -7.02904 0.0 -16.85462 0.0 
  -2.005 -5.6046600341796875 9.324920043945312 118.07 85.8792 -1559.96 3.38159 -17.9816 0.681695 -8.6606 18.5025 3.96437 19.2396 51.2322 350.815 -75.3695 -81.2197 655.045 -115.8284 -1.59831 368.714 -44.3558 8.59713 28.9854 0.0 20.5757 0.0 10.84 -16.996 -10.501 0.0 0.0 0.0 0.0 0.0 0.0 122.0036 -3.641 -363.104 46.2718 2.93738 -376.319 0.0 22.1755 0.0 2.7119 -9.52503 17.0514 0.0 0.0 0.0 0.0 0.0 0.0 -5.43751 -3.71693 -732.271 0.0 14.9653 0.0 -0.184464 2.3449001 16.8415 0.0 -34.4328 0.0 2.59363 -5.16191 17.3292 0.0 20.8466 0.0 29.6216 -13.316099 -6.82746 0.0 -16.92973 0.0 
  -2.004830017089844 -5.611939697265625 9.324520263671875 116.169 85.9417 -1558.17 3.38116 -17.8869 0.759823 -8.61718 18.2704 4.00024 19.1891 51.4292 350.877 -75.548 -81.165 654.881 -115.8401 -1.66041 368.607 -44.4806 8.46103 28.882 0.0 20.5265 0.0 11.0464 -17.043 -10.4449 0.0 0.0 0.0 0.0 0.0 0.0 121.9957 -3.67295 -363.137 46.2039 2.9151 -376.585 0.0 22.2886 0.0 2.39482 -9.36833 16.65 0.0 0.0 0.0 0.0 0.0 0.0 -5.45265 -3.51595 -732.17 0.0 14.9675 0.0 -0.115485 2.3151999 16.9064 0.0 -34.371902 0.0 2.62144 -4.96313 17.5869 0.0 20.8372 0.0 29.6537 -13.4137 -6.96873 0.0 -16.84778 0.0 
  -2.00468994140625 -5.617440185546875 9.323270263671875 115.14 85.9895 -1557.16 3.37186 -17.8904 0.754736 -8.5723 18.1947 3.9977 18.9989 51.4613 351.103 -75.5567 -81.1555 654.858 -115.859 -1.72282 368.535 -44.5028 8.41932 28.92 0.0 20.5444 0.0 11.2561 -16.9961 -9.99437 0.0 0.0 0.0 0.0 0.0 0.0 122.064804 -3.66678 -363.154 46.0134 3.03033 -377.029 0.0 22.3193 0.0 2.32756 -9.42311 14.6308 0.0 0.0 0.0 0.0 0.0 0.0 -5.46613 -3.44063 -732.146 0.0 15.0622 0.0 -0.117259 2.2398996 16.9483 0.0 -34.3564 0.0 2.64448 -4.84252 17.6272 0.0 20.8406 0.0 29.6911 -13.474701 -6.99763 0.0 -16.80123 0.0 
